<?xml version="1.0" encoding="UTF-8" standalone="no"?>
<!-- Created with Inkscape (http://www.inkscape.org/) -->

<svg
   xmlns:dc="http://purl.org/dc/elements/1.1/"
   xmlns:cc="http://creativecommons.org/ns#"
   xmlns:rdf="http://www.w3.org/1999/02/22-rdf-syntax-ns#"
   xmlns:svg="http://www.w3.org/2000/svg"
   xmlns="http://www.w3.org/2000/svg"
   xmlns:sodipodi="http://sodipodi.sourceforge.net/DTD/sodipodi-0.dtd"
   xmlns:inkscape="http://www.inkscape.org/namespaces/inkscape"
   width="210mm"
   height="297mm"
   viewBox="0 0 210 297"
   version="1.1"
   id="svg8"
   inkscape:version="0.92.2 5c3e80d, 2017-08-06"
   sodipodi:docname="homerun.svg">
  <defs
     id="defs2" />
  <sodipodi:namedview
     id="base"
     pagecolor="#ffffff"
     bordercolor="#666666"
     borderopacity="1.0"
     inkscape:pageopacity="0.0"
     inkscape:pageshadow="2"
     inkscape:zoom="0.35"
     inkscape:cx="-458.57143"
     inkscape:cy="580.30193"
     inkscape:document-units="mm"
     inkscape:current-layer="layer1"
     showgrid="false"
     inkscape:window-width="1920"
     inkscape:window-height="1009"
     inkscape:window-x="0"
     inkscape:window-y="0"
     inkscape:window-maximized="1" />
  <metadata
     id="metadata5">
    <rdf:RDF>
      <cc:Work
         rdf:about="">
        <dc:format>image/svg+xml</dc:format>
        <dc:type
           rdf:resource="http://purl.org/dc/dcmitype/StillImage" />
        <dc:title></dc:title>
      </cc:Work>
    </rdf:RDF>
  </metadata>
  <g
     inkscape:label="Layer 1"
     inkscape:groupmode="layer"
     id="layer1">
    <path
       style="fill:#ffffff;stroke-width:0.41481531;fill-opacity:1"
       d="m 89.959525,242.73782 c -16.3659,-1.41581 -28.620086,-4.22029 -40.859316,-9.35077 -10.755,-4.50849 -25.54698,-12.88287 -30.59263,-17.31997 -2.51891,-2.21508 -2.52932,-2.18885 4.33939,-10.90266 1.56329,-1.98326 3.18349,-3.71413 3.60045,-3.84641 1.04222,-0.33079 1.92404,0.0506 4.81573,2.0855 13.16204,9.25978 27.31406,15.3815 43.555686,18.84049 17.55556,3.73899 35.193345,3.13432 54.001395,-1.85144 17.82578,-4.72557 31.34558,-14.12122 39.39339,-27.37676 10.20754,-16.81249 10.00837,-37.47207 -0.5248,-54.46662 -2.71925,-4.38708 -10.54345,-12.34618 -14.85954,-15.11578 -7.77405,-4.98811 -18.05763,-8.72789 -27.61052,-10.04111 -5.27813,-0.72524 -17.41313,-1.44672 -20.32584,-1.20818 -13.334585,1.09213 -18.254115,2.46517 -22.479895,6.27478 -4.88407,4.40262 -4.84511,12.3662 0.079,16.2666 3.29751,2.61139 5.00256,3.07394 11.40802,3.09355 3.19394,0.006 9.260545,-0.14918 13.481335,-0.35225 17.62985,-0.85075 29.79486,2.35237 36.6106,9.6387 3.94901,4.22205 6.53008,11.58369 6.53008,18.62482 0,10.45861 -4.84712,19.56476 -13.30106,24.98767 -7.26231,4.65854 -12.21796,6.29037 -24.65443,8.11806 -6.85122,1.00691 -8.21892,1.07965 -16.592665,0.88189 -16.49651,-0.38939 -28.849456,-3.17354 -40.921436,-9.22322 -17.03231,-8.53572 -31.14426,-25.24673 -36.58608,-43.32441 -2.25785,-7.50029 -2.84333,-12.60618 -2.62957,-22.92991 0.1681,-8.12063 0.27888,-9.17356 1.42787,-13.57394 3.11097,-11.914041 7.14472,-19.869401 14.83669,-29.260301 9.96095,-12.16123 22.7447,-19.82161 42.808986,-25.65245 9.60273,-2.79055 16.78994,-3.94168 26.663675,-4.27052 23.06581,-0.76819 45.86718,4.51431 68.85904,15.95281 6.34164,3.15488 6.61003,3.5244 4.94295,6.79892 -1.70598,3.35028 -5.45178,9.67447 -5.92432,10.0021 -0.88384,0.61302 -2.9673,-0.0345 -8.1481,-2.53193 -10.83417,-5.22279 -28.65045,-10.1628 -42.72217,-11.84582 -7.04709,-0.84283 -21.196115,-0.5668 -27.502875,0.53651 -19.67073,3.44143 -34.130226,10.80326 -43.574026,22.18546 -8.28538,9.986031 -11.36978,17.207641 -12.72271,29.788241 -1.16498,10.83316 2.35092,23.83555 9.35198,34.58554 2.19565,3.37123 10.56274,11.64125 14.09969,13.936 13.700826,8.88897 33.920266,12.57297 52.881211,9.63514 9.8242,-1.52246 16.09895,-4.67334 18.85717,-9.46927 2.98779,-5.19509 0.69957,-11.39365 -5.28944,-14.32866 -3.44194,-1.68685 -5.94492,-1.8819 -15.6416,-1.21774 C 90.317895,156.79227 78.980435,155.379 71.403025,150.81743 63.741419,146.205 58.740549,135.5242 59.390669,125.16155 c 0.79892,-12.73412 7.26131,-21.01198 20.652436,-26.454681 8.06955,-3.27999 15.44294,-4.57766 27.960395,-4.92135 6.68018,-0.18362 8.86152,-0.078 14.31127,0.6905 16.08368,2.26892 29.27911,6.967911 40.85929,14.550201 5.77386,3.78044 5.94601,3.9239 12.5738,10.48511 6.32727,6.26361 9.5017,10.60699 12.73236,17.42108 4.14461,8.74114 5.5335,14.80889 5.88053,25.69429 0.26214,8.21549 -0.0603,12.11582 -1.60331,19.36478 -1.66849,7.83973 -5.63368,16.99196 -10.56963,24.39611 -4.05019,6.07562 -13.24408,15.24078 -19.63603,19.57444 -11.43839,7.75526 -24.17889,12.55871 -41.48145,15.63956 -5.35794,0.95405 -7.28298,1.08333 -17.62993,1.1842 -6.388005,0.0619 -12.454605,0.0405 -13.481265,-0.0478 z"
       id="path21"
       inkscape:connector-curvature="0" />
  </g>
</svg>
